<?xml version="1.0" standalone="no"?>
<!DOCTYPE svg PUBLIC "-//W3C//DTD SVG 20010904//EN"
 "http://www.w3.org/TR/2001/REC-SVG-20010904/DTD/svg10.dtd">
<svg version="1.0" xmlns="http://www.w3.org/2000/svg"
 width="6987.000000pt" height="7563.000000pt" viewBox="0 0 6987.000000 7563.000000"
 preserveAspectRatio="xMidYMid meet">
<metadata>
Created by potrace 1.16, written by Peter Selinger 2001-2019
</metadata>
<g transform="translate(0.000000,7563.000000) scale(0.100000,-0.100000)"
fill="#000000" stroke="none">
<path d="M1 65098 c1 -8936 3 -10512 15 -10393 136 1406 880 2671 2024 3444
208 140 204 138 1450 824 4850 2669 10286 5660 10340 5689 36 20 258 142 493
272 236 130 431 236 433 236 2 0 21 11 42 23 20 13 72 42 114 65 42 22 113 61
157 86 44 26 83 46 87 46 3 0 18 8 32 18 15 11 68 40 117 66 50 27 95 51 100
56 6 4 51 29 100 55 122 65 157 84 252 138 45 26 85 47 88 47 3 0 22 11 43 23
20 13 72 42 114 65 42 22 113 61 157 86 44 26 83 46 86 46 3 0 22 11 43 23 20
13 76 45 124 70 47 25 103 56 125 68 21 12 67 38 103 57 36 19 81 44 100 55
35 20 110 61 185 102 22 12 67 37 100 55 33 18 78 43 100 55 22 12 67 37 100
55 33 18 80 44 104 57 24 13 65 36 90 50 25 14 75 42 111 61 36 19 81 44 100
55 19 11 64 36 100 55 36 19 81 44 100 55 19 11 64 36 100 55 36 19 81 44 100
55 19 11 64 36 100 55 36 19 81 44 100 55 43 24 128 71 200 110 30 17 73 40
95 52 22 12 67 37 100 55 33 18 78 43 100 55 22 12 67 37 100 55 33 18 79 44
103 57 23 12 63 34 89 49 25 14 67 37 92 51 25 14 71 39 101 55 30 17 78 43
105 58 28 15 75 41 105 57 30 17 71 39 90 50 19 11 64 36 100 55 36 19 81 44
100 55 19 11 64 36 100 55 36 19 86 47 111 61 25 14 66 37 90 50 72 40 161 89
204 112 22 12 67 37 100 55 33 18 78 43 100 55 22 12 67 37 100 55 33 18 78
43 100 55 75 41 150 82 185 102 19 11 64 36 100 55 36 19 82 45 103 57 22 12
78 42 125 68 48 25 92 49 97 53 6 4 51 29 100 55 50 27 107 59 127 72 21 12
40 23 43 23 3 0 43 21 88 47 45 25 100 56 122 68 22 12 67 37 100 55 123 68
142 78 230 125 50 26 102 56 117 67 14 10 29 18 32 18 3 0 43 21 88 46 46 26
117 64 158 87 41 22 92 51 112 64 21 12 40 23 43 23 3 0 42 20 86 46 44 25
115 64 157 86 42 23 94 52 114 65 21 12 40 23 42 23 3 0 107 57 233 126 125
70 266 147 313 172 47 25 97 53 112 64 14 10 29 18 32 18 3 0 43 21 88 46 46
25 112 62 148 82 576 314 8809 4848 8820 4857 24 21 308 160 437 214 426 179
909 299 1373 340 52 4 -7698 9 -17222 10 l-17318 1 1 -10532z"/>
<path d="M35265 75623 c544 -45 1019 -164 1510 -378 129 -56 355 -170 365
-184 3 -5 8393 -4625 9060 -4989 30 -16 92 -51 138 -76 45 -25 85 -46 88 -46
3 0 18 -8 32 -18 15 -11 68 -40 117 -66 50 -27 95 -51 100 -56 6 -4 48 -27 95
-52 47 -25 143 -78 213 -117 70 -39 130 -71 133 -71 2 0 21 -11 42 -23 20 -13
72 -42 114 -65 42 -22 113 -61 157 -86 44 -26 83 -46 86 -46 3 0 22 -11 43
-23 20 -13 78 -45 127 -72 50 -26 95 -51 100 -55 6 -4 46 -27 90 -50 82 -44
114 -62 220 -120 33 -18 78 -43 100 -55 22 -12 67 -37 100 -55 33 -18 78 -43
100 -55 22 -12 67 -37 100 -55 33 -18 78 -43 100 -55 22 -12 77 -43 122 -68
45 -26 85 -47 88 -47 3 0 22 -11 43 -23 20 -13 76 -45 124 -70 47 -25 103 -56
125 -68 21 -12 67 -38 103 -57 36 -19 81 -44 100 -55 19 -11 64 -36 100 -55
36 -19 81 -44 100 -55 35 -20 110 -61 185 -102 22 -12 67 -37 100 -55 33 -18
85 -47 115 -63 30 -17 74 -41 98 -54 23 -12 63 -34 89 -49 25 -14 67 -37 92
-51 25 -14 75 -42 111 -61 36 -19 81 -44 100 -55 19 -11 64 -36 100 -55 36
-19 81 -44 100 -55 19 -11 60 -33 90 -50 30 -16 78 -42 105 -57 28 -15 75 -41
105 -57 30 -17 71 -39 90 -50 19 -11 64 -36 100 -55 36 -19 86 -47 111 -61 45
-26 77 -43 194 -107 33 -18 78 -43 100 -55 44 -25 138 -76 200 -110 63 -34
147 -81 185 -102 19 -11 64 -36 100 -55 36 -19 81 -44 100 -55 19 -11 64 -36
100 -55 36 -19 81 -44 100 -55 19 -11 64 -36 100 -55 36 -19 82 -45 103 -57
22 -12 78 -43 125 -68 48 -25 104 -57 124 -70 21 -12 40 -23 43 -23 3 0 43
-21 88 -47 45 -25 100 -56 122 -68 22 -12 67 -37 100 -55 33 -18 78 -43 100
-55 22 -12 67 -37 100 -55 33 -18 78 -43 100 -55 77 -42 150 -82 188 -104 22
-12 78 -42 125 -68 48 -25 92 -49 97 -53 6 -4 51 -29 100 -55 50 -27 107 -59
127 -72 21 -12 40 -23 43 -23 3 0 42 -20 86 -46 44 -25 115 -64 157 -86 42
-23 94 -52 114 -65 21 -12 40 -23 42 -23 3 0 63 -32 133 -71 70 -39 166 -92
213 -117 47 -25 90 -48 95 -52 6 -5 51 -29 100 -56 50 -26 102 -55 117 -66 14
-10 29 -18 32 -18 4 0 42 -20 84 -44 43 -24 109 -61 147 -81 120 -65 11778
-6481 12001 -6605 237 -132 360 -207 516 -317 383 -269 776 -654 1055 -1033
534 -727 853 -1599 912 -2495 4 -73 9 4508 10 10463 l1 10592 -17322 -2
c-9528 -1 -17305 -3 -17283 -5z"/>
<path d="M69860 21118 c0 -87 -16 -256 -41 -428 -191 -1335 -946 -2525 -2064
-3255 -77 -51 -180 -114 -230 -142 -77 -44 -4359 -2401 -25275 -13915 -5227
-2878 -5199 -2862 -5285 -2905 -352 -177 -771 -318 -1182 -397 -124 -24 -396
-61 -508 -69 -27 -2 7745 -4 17273 -5 l17322 -2 0 10590 c0 5825 -2 10590 -5
10590 -3 0 -5 -28 -5 -62z"/>
<path d="M1 10533 l-1 -10533 17318 2 c9524 1 17295 3 17267 5 -114 8 -390 46
-530 74 -408 80 -786 209 -1155 394 -81 40 -1841 1006 -3911 2146 -2070 1139
-8885 4891 -15144 8336 -6259 3445 -11432 6294 -11495 6330 -155 88 -431 272
-565 379 -1015 805 -1644 1963 -1769 3259 -12 119 -14 -1457 -15 -10392z"/>
</g>
</svg>
